<?xml version="1.0" ?><!DOCTYPE svg  PUBLIC '-//W3C//DTD SVG 1.1//EN'  'http://www.w3.org/Graphics/SVG/1.1/DTD/svg11.dtd'><svg enable-background="new 0 0 136.367 135.463" height="135.463px" id="Layer_1" version="1.1" viewBox="0 0 136.367 135.463" width="136.367px" xml:space="preserve" xmlns="http://www.w3.org/2000/svg" xmlns:xlink="http://www.w3.org/1999/xlink"><g><g><g><g><circle cx="68.184" cy="67.558" fill="#CA2128" r="63.333"/></g></g></g><path d="M112.967,22.946c24.733,24.734,24.734,64.834,0,89.568c-24.732,24.732-64.834,24.733-89.568,0   L112.967,22.946z" fill="#BA202D"/><g><path d="M130.409,79.317L93.313,42.22l-5.244,5.244L59.224,35.618L34.557,60.285l13.012,27.678l-5.576,5.577    l36.501,36.501C104.723,125.745,125.52,105.342,130.409,79.317z" fill="#AA1E30"/></g><path d="M68.09,31.793c-20.004,0-36.225,16.216-36.225,36.222c0,14.833,8.919,27.576,21.684,33.178   c-0.102-2.532-0.018-5.568,0.627-8.316c0.7-2.944,4.664-19.742,4.664-19.742s-1.16-2.311-1.16-5.729   c0-5.365,3.115-9.375,6.991-9.375c3.29,0,4.884,2.473,4.884,5.435c0,3.313-2.115,8.268-3.198,12.854   c-0.909,3.842,1.927,6.976,5.712,6.976c6.865,0,11.485-8.811,11.485-19.256c0-7.938-5.344-13.878-15.07-13.878   c-10.986,0-17.831,8.191-17.831,17.342c0,3.157,0.932,5.383,2.388,7.107c0.672,0.792,0.765,1.107,0.517,2.018   c-0.166,0.668-0.565,2.271-0.733,2.905c-0.243,0.923-0.983,1.246-1.813,0.907c-5.061-2.063-7.418-7.605-7.418-13.836   c0-10.288,8.676-22.629,25.889-22.629c13.827,0,22.934,10.009,22.934,20.751c0,14.209-7.904,24.822-19.548,24.822   c-3.913,0-7.591-2.114-8.847-4.512c0,0-2.106,8.345-2.549,9.958c-0.768,2.786-2.273,5.584-3.646,7.759   c3.254,0.96,6.697,1.482,10.266,1.482c20,0,36.219-16.215,36.219-36.222C104.309,48.009,88.09,31.793,68.09,31.793z" fill="#FFFFFF"/></g></svg>